<?xml version="1.0" encoding="utf-8"?>
<!-- Generator: Adobe Illustrator 27.5.0, SVG Export Plug-In . SVG Version: 6.00 Build 0)  -->
<svg version="1.1" xmlns="http://www.w3.org/2000/svg" xmlns:xlink="http://www.w3.org/1999/xlink" x="0px" y="0px"
	 viewBox="0 0 500 500" style="enable-background:new 0 0 500 500;" xml:space="preserve">
<g id="BACKGROUND">
	<rect style="opacity:0.1;fill:#DBA726;" width="500" height="500"/>
</g>
<g id="OBJECTS">
	<g>
		<path style="fill:#DBA726;" d="M333.608,219.366c0,0-10.217-0.422-17.711-13.322c3.046-5.201,4.537-11.49,3.949-18.376l0,0
			c-1.656-19.4-16.754-35.663-33.722-36.326l-23.845-0.931c-16.968-0.663-32.662,13.866-35.054,32.45l0,0
			c-2.392,18.585,11.788,34.663,31.673,35.914l27.943,1.757c7.845,0.493,14.888-1.506,20.447-5.29
			C311.578,218.212,320.237,222.196,333.608,219.366z"/>
		<g>
			<path style="fill:#2B2B2B;" d="M288.959,184.368c-0.283,3.001,1.921,5.663,4.922,5.946c3.001,0.283,5.663-1.921,5.946-4.922
				c0.283-3.001-1.921-5.663-4.922-5.946C291.904,179.164,289.242,181.367,288.959,184.368z"/>
			<path style="fill:#2B2B2B;" d="M268.934,182.482c-0.283,3.001,1.921,5.663,4.922,5.945c3.001,0.283,5.663-1.921,5.945-4.922
				c0.283-3.001-1.921-5.663-4.922-5.946C271.878,177.278,269.216,179.481,268.934,182.482z"/>
			<path style="fill:#2B2B2B;" d="M248.908,180.596c-0.283,3.001,1.921,5.663,4.922,5.946c3.001,0.283,5.663-1.921,5.945-4.922
				c0.283-3.001-1.921-5.663-4.922-5.946C251.853,175.392,249.191,177.596,248.908,180.596z"/>
		</g>
	</g>
	<g>
		<path style="fill:#2B2B2B;" d="M227.502,183.28l-27.798,1.635c-19.781,1.164-34.652,15.99-33.217,33.115v0
			c1.021,12.178,9.061,22.899,19.896,28.247c-4.137,10.97-11.954,13.316-11.954,13.316c12.946-0.534,19.826-6.347,22.891-9.983
			c1.112,0.143,2.236,0.234,3.37,0.264l24.527,0.649c17.454,0.462,33.057-14.876,34.852-34.257v0
			C261.863,196.885,247.283,182.116,227.502,183.28z"/>
		<g>
			<path style="fill:#DBA726;" d="M224.404,216.587c0.159,3.01,2.729,5.321,5.739,5.161c3.01-0.159,5.321-2.729,5.161-5.739
				c-0.159-3.01-2.729-5.321-5.739-5.161C226.555,211.007,224.244,213.576,224.404,216.587z"/>
			<path style="fill:#DBA726;" d="M204.318,217.65c0.159,3.01,2.729,5.321,5.739,5.161c3.01-0.159,5.321-2.729,5.161-5.739
				c-0.16-3.01-2.729-5.321-5.739-5.161C206.469,212.071,204.158,214.641,204.318,217.65z"/>
			<path style="fill:#DBA726;" d="M184.232,218.714c0.16,3.01,2.729,5.321,5.739,5.162c3.01-0.16,5.321-2.729,5.161-5.739
				c-0.159-3.01-2.729-5.321-5.739-5.161C186.383,213.135,184.072,215.704,184.232,218.714z"/>
		</g>
	</g>
	<path style="fill:#FFFFFF;" d="M260.069,216.266c1.794-19.381-12.786-34.15-32.567-32.986l-0.321,0.019
		c-2.114,18.398,11.99,34.235,31.717,35.475l0.841,0.053C259.872,217.981,259.989,217.129,260.069,216.266L260.069,216.266z"/>
	<g>
		<g>
			<path style="fill:none;stroke:#DBA726;stroke-width:1.5;stroke-linecap:round;stroke-linejoin:round;stroke-miterlimit:10;" d="
				M203.035,156.277c-0.721-1.061-1.441-2.122-2.162-3.183"/>
			<path style="fill:none;stroke:#DBA726;stroke-width:1.5;stroke-linecap:round;stroke-linejoin:round;stroke-miterlimit:10;" d="
				M211.779,169.153c-2.277-3.352-4.553-6.704-6.83-10.057"/>
			<path style="fill:none;stroke:#DBA726;stroke-width:1.5;stroke-linecap:round;stroke-linejoin:round;stroke-miterlimit:10;" d="
				M217.464,156.177c-0.594-2.291-1.188-4.581-1.782-6.872"/>
			<path style="fill:none;stroke:#DBA726;stroke-width:1.5;stroke-linecap:round;stroke-linejoin:round;stroke-miterlimit:10;" d="
				M220.066,166.212c-0.659-2.542-1.318-5.084-1.977-7.626"/>
			<path style="fill:none;stroke:#DBA726;stroke-width:1.5;stroke-linecap:round;stroke-linejoin:round;stroke-miterlimit:10;" d="
				M199.176,170.925c-2.288-1.457-4.577-2.913-6.865-4.37"/>
			<path style="fill:none;stroke:#DBA726;stroke-width:1.5;stroke-linecap:round;stroke-linejoin:round;stroke-miterlimit:10;" d="
				M204.362,174.226c-0.864-0.55-1.729-1.1-2.593-1.65"/>
		</g>
		<g>
			<path style="fill:none;stroke:#DBA726;stroke-width:1.5;stroke-linecap:round;stroke-linejoin:round;stroke-miterlimit:10;" d="
				M271.354,237.23c1.841,2.609,2.818,3.992,4.658,6.601"/>
			<path style="fill:none;stroke:#DBA726;stroke-width:1.5;stroke-linecap:round;stroke-linejoin:round;stroke-miterlimit:10;" d="
				M268.031,232.521c0.48,0.681,0.961,1.362,1.442,2.043"/>
			<path style="fill:none;stroke:#DBA726;stroke-width:1.5;stroke-linecap:round;stroke-linejoin:round;stroke-miterlimit:10;" d="
				M284.547,235.102c1.237,0.636,2.475,1.272,3.712,1.908"/>
			<path style="fill:none;stroke:#DBA726;stroke-width:1.5;stroke-linecap:round;stroke-linejoin:round;stroke-miterlimit:10;" d="
				M274.496,229.935c2.363,1.215,4.727,2.43,7.091,3.645"/>
			<path style="fill:none;stroke:#DBA726;stroke-width:1.5;stroke-linecap:round;stroke-linejoin:round;stroke-miterlimit:10;" d="
				M264.85,249.534c0.284,1.076,0.567,2.152,0.851,3.227"/>
			<path style="fill:none;stroke:#DBA726;stroke-width:1.5;stroke-linecap:round;stroke-linejoin:round;stroke-miterlimit:10;" d="
				M262.194,239.456c0.692,2.626,1.384,5.251,2.076,7.877"/>
		</g>
	</g>
</g>
<g id="TEXTS">
	<text transform="matrix(1 0 0 1 154.8936 310.9134)" style="fill:#2B2B2B; font-family:'Alkalami-Regular'; font-size:37px;">Lively Chat</text>
	<text transform="matrix(1 0 0 1 175.9481 336.9944)" style="fill:#DBA726; font-family:'Montserrat-Light'; font-size:20px;">LOREM IPSUM</text>
</g>
</svg>
